<svg width="26" height="26" viewBox="0 0 26 26" fill="none" xmlns="http://www.w3.org/2000/svg">
<path d="M19.5322 6.38464L20.1792 14.3584L18.559 18.503L14.3728 18.8427L15.9929 14.6981L14.1988 14.8436L13.5519 6.86983L19.5322 6.38464ZM19.1638 14.2101L18.6164 7.46223L14.6295 7.78569L15.1147 13.766L17.5068 13.572L15.8867 17.7165L17.8502 17.5572L19.1638 14.2101ZM12.5552 6.95069L13.2021 14.9245L11.5819 19.0691L7.39569 19.4087L9.01584 15.2641L7.22174 15.4097L6.57481 7.43589L12.5552 6.95069ZM12.1868 14.7761L11.6393 8.02829L7.6524 8.35175L8.1376 14.3321L10.5297 14.138L8.90959 18.2826L10.8731 18.1233L12.1868 14.7761Z" fill="white"/>
</svg>
