<svg width="26" height="26" viewBox="0 0 26 26" fill="none" xmlns="http://www.w3.org/2000/svg">
<path d="M6.5686 19.4976L5.9813 11.5192L7.63239 7.38688L11.8211 7.07854L10.17 11.2109L11.9651 11.0788L12.5524 19.0572L6.5686 19.4976ZM6.99549 11.6752L7.49249 18.4269L11.4817 18.1333L11.0412 12.1495L8.6477 12.3257L10.2988 8.19331L8.3341 8.33793L6.99549 11.6752ZM13.5497 18.9838L12.9624 11.0054L14.6135 6.87299L18.8022 6.56466L17.1511 10.697L18.9462 10.5649L19.5335 18.5433L13.5497 18.9838ZM13.9766 11.1613L14.4736 17.913L18.4628 17.6194L18.0223 11.6356L15.6288 11.8118L17.2799 7.67942L15.3152 7.82404L13.9766 11.1613Z" fill="white"/>
</svg>
